{"glyphs":{"0":{"ha":868,"x_min":0,"x_max":693,"o":"m 183 0 l 183 174 l 357 174 l 531 174 l 531 0 l 357 0 l 183 0 l 183 0 l 183 0 m 10 174 l 10 347 l 10 521 l 10 694 l 10 868 l 10 1042 l 10 1215 l 183 1215 l 183 1042 l 183 868 l 183 694 l 357 694 l 357 521 l 183 521 l 183 347 l 183 174 l 10 174 l 10 174 l 10 174 m 357 694 l 357 868 l 531 868 l 531 1042 l 531 1215 l 704 1215 l 704 1042 l 704 868 l 704 694 l 704 521 l 704 347 l 704 174 l 531 174 l 531 347 l 531 521 l 531 694 l 357 694 l 357 694 l 357 694 m 183 1215 l 183 1389 l 357 1389 l 531 1389 l 531 1215 l 357 1215 l 183 1215 l 183 1215 l 183 1215 z "},"1":{"ha":694,"x_min":0,"x_max":519,"o":"m 10 0 l 10 174 l 183 174 l 183 347 l 183 521 l 183 694 l 183 868 l 183 1042 l 10 1042 l 10 1215 l 183 1215 l 183 1389 l 357 1389 l 357 1215 l 357 1042 l 357 868 l 357 694 l 357 521 l 357 347 l 357 174 l 531 174 l 531 0 l 357 0 l 183 0 l 10 0 l 10 0 l 10 0 z "},"2":{"ha":868,"x_min":0,"x_max":693,"o":"m 10 0 l 10 174 l 10 347 l 10 521 l 183 521 l 183 347 l 183 174 l 357 174 l 531 174 l 704 174 l 704 0 l 531 0 l 357 0 l 183 0 l 10 0 l 10 0 l 10 0 m 531 694 l 531 868 l 531 1042 l 531 1215 l 704 1215 l 704 1042 l 704 868 l 704 694 l 531 694 l 531 694 l 531 694 m 10 1042 l 10 1215 l 183 1215 l 183 1042 l 10 1042 l 10 1042 l 10 1042 m 183 1215 l 183 1389 l 357 1389 l 531 1389 l 531 1215 l 357 1215 l 183 1215 l 183 1215 l 183 1215 m 183 521 l 183 694 l 357 694 l 531 694 l 531 521 l 357 521 l 183 521 l 183 521 l 183 521 z "},"3":{"ha":868,"x_min":0,"x_max":693,"o":"m 183 0 l 183 174 l 357 174 l 531 174 l 531 0 l 357 0 l 183 0 l 183 0 l 183 0 m 10 174 l 10 347 l 183 347 l 183 174 l 10 174 l 10 174 l 10 174 m 531 174 l 531 347 l 531 521 l 531 694 l 704 694 l 704 521 l 704 347 l 704 174 l 531 174 l 531 174 l 531 174 m 10 1042 l 10 1215 l 183 1215 l 183 1042 l 10 1042 l 10 1042 l 10 1042 m 183 1215 l 183 1389 l 357 1389 l 531 1389 l 531 1215 l 357 1215 l 183 1215 l 183 1215 l 183 1215 m 531 868 l 531 1042 l 531 1215 l 704 1215 l 704 1042 l 704 868 l 531 868 l 531 868 l 531 868 m 183 694 l 183 868 l 357 868 l 531 868 l 531 694 l 357 694 l 183 694 l 183 694 l 183 694 z "},"4":{"ha":1042,"x_min":0,"x_max":867,"o":"m 10 521 l 10 694 l 10 868 l 183 868 l 183 694 l 357 694 l 531 694 l 531 868 l 531 1042 l 357 1042 l 357 1215 l 531 1215 l 531 1389 l 704 1389 l 704 1215 l 704 1042 l 704 868 l 704 694 l 878 694 l 878 521 l 704 521 l 704 347 l 704 174 l 704 0 l 531 0 l 531 174 l 531 347 l 531 521 l 357 521 l 183 521 l 10 521 l 10 521 l 10 521 m 183 868 l 183 1042 l 357 1042 l 357 868 l 183 868 l 183 868 l 183 868 z "},"5":{"ha":868,"x_min":0,"x_max":693,"o":"m 10 0 l 10 174 l 183 174 l 357 174 l 531 174 l 531 0 l 357 0 l 183 0 l 10 0 l 10 0 l 10 0 m 531 174 l 531 347 l 531 521 l 531 694 l 704 694 l 704 521 l 704 347 l 704 174 l 531 174 l 531 174 l 531 174 m 10 694 l 10 868 l 10 1042 l 10 1215 l 10 1389 l 183 1389 l 357 1389 l 531 1389 l 704 1389 l 704 1215 l 531 1215 l 357 1215 l 183 1215 l 183 1042 l 183 868 l 357 868 l 531 868 l 531 694 l 357 694 l 183 694 l 10 694 l 10 694 l 10 694 z "},"6":{"ha":868,"x_min":0,"x_max":693,"o":"m 183 0 l 183 174 l 357 174 l 531 174 l 531 0 l 357 0 l 183 0 l 183 0 l 183 0 m 10 174 l 10 347 l 10 521 l 10 694 l 10 868 l 10 1042 l 10 1215 l 183 1215 l 183 1042 l 183 868 l 357 868 l 531 868 l 531 694 l 357 694 l 183 694 l 183 521 l 183 347 l 183 174 l 10 174 l 10 174 l 10 174 m 531 174 l 531 347 l 531 521 l 531 694 l 704 694 l 704 521 l 704 347 l 704 174 l 531 174 l 531 174 l 531 174 m 183 1215 l 183 1389 l 357 1389 l 531 1389 l 531 1215 l 357 1215 l 183 1215 l 183 1215 l 183 1215 m 531 1042 l 531 1215 l 704 1215 l 704 1042 l 531 1042 l 531 1042 l 531 1042 z "},"7":{"ha":868,"x_min":0,"x_max":693,"o":"m 183 0 l 183 174 l 183 347 l 183 521 l 183 694 l 357 694 l 357 521 l 357 347 l 357 174 l 357 0 l 183 0 l 183 0 l 183 0 m 10 1215 l 10 1389 l 183 1389 l 357 1389 l 531 1389 l 704 1389 l 704 1215 l 704 1042 l 704 868 l 531 868 l 531 1042 l 531 1215 l 357 1215 l 183 1215 l 10 1215 l 10 1215 l 10 1215 m 357 694 l 357 868 l 531 868 l 531 694 l 357 694 l 357 694 l 357 694 z "},"8":{"ha":868,"x_min":0,"x_max":693,"o":"m 183 0 l 183 174 l 357 174 l 531 174 l 531 0 l 357 0 l 183 0 l 183 0 l 183 0 m 10 174 l 10 347 l 10 521 l 10 694 l 183 694 l 183 521 l 183 347 l 183 174 l 10 174 l 10 174 l 10 174 m 531 174 l 531 347 l 531 521 l 531 694 l 704 694 l 704 521 l 704 347 l 704 174 l 531 174 l 531 174 l 531 174 m 183 1215 l 183 1389 l 357 1389 l 531 1389 l 531 1215 l 357 1215 l 183 1215 l 183 1215 l 183 1215 m 10 868 l 10 1042 l 10 1215 l 183 1215 l 183 1042 l 183 868 l 10 868 l 10 868 l 10 868 m 531 868 l 531 1042 l 531 1215 l 704 1215 l 704 1042 l 704 868 l 531 868 l 531 868 l 531 868 m 183 694 l 183 868 l 357 868 l 531 868 l 531 694 l 357 694 l 183 694 l 183 694 l 183 694 z "},"9":{"ha":868,"x_min":0,"x_max":693,"o":"m 10 0 l 10 174 l 183 174 l 357 174 l 531 174 l 531 0 l 357 0 l 183 0 l 10 0 l 10 0 l 10 0 m 183 521 l 183 694 l 357 694 l 531 694 l 531 868 l 531 1042 l 531 1215 l 704 1215 l 704 1042 l 704 868 l 704 694 l 704 521 l 704 347 l 704 174 l 531 174 l 531 347 l 531 521 l 357 521 l 183 521 l 183 521 l 183 521 m 10 694 l 10 868 l 10 1042 l 10 1215 l 183 1215 l 183 1042 l 183 868 l 183 694 l 10 694 l 10 694 l 10 694 m 183 1215 l 183 1389 l 357 1389 l 531 1389 l 531 1215 l 357 1215 l 183 1215 l 183 1215 l 183 1215 z "}," ":{"ha":521,"x_min":0,"x_max":0,"o":""},"!":{"ha":347,"x_min":0,"x_max":172,"o":"m 10 0 l 10 174 l 183 174 l 183 0 l 10 0 l 10 0 l 10 0 m 10 347 l 10 521 l 10 694 l 10 868 l 10 1042 l 10 1215 l 10 1389 l 183 1389 l 183 1215 l 183 1042 l 183 868 l 183 694 l 183 521 l 183 347 l 10 347 l 10 347 l 10 347 z "},"\"":{"ha":694,"x_min":0,"x_max":519,"o":"m 10 1042 l 10 1215 l 10 1389 l 183 1389 l 183 1215 l 183 1042 l 10 1042 l 10 1042 l 10 1042 m 357 1042 l 357 1215 l 357 1389 l 531 1389 l 531 1215 l 531 1042 l 357 1042 l 357 1042 l 357 1042 z "},"#":{"ha":1042,"x_min":0,"x_max":867,"o":"m 10 521 l 10 694 l 183 694 l 183 868 l 10 868 l 10 1042 l 183 1042 l 183 1215 l 183 1389 l 357 1389 l 357 1215 l 357 1042 l 531 1042 l 531 1215 l 531 1389 l 704 1389 l 704 1215 l 704 1042 l 878 1042 l 878 868 l 704 868 l 704 694 l 878 694 l 878 521 l 704 521 l 704 347 l 704 174 l 531 174 l 531 347 l 531 521 l 357 521 l 357 347 l 357 174 l 183 174 l 183 347 l 183 521 l 10 521 l 10 521 l 10 521 m 357 868 l 357 694 l 531 694 l 531 868 l 357 868 l 357 868 l 357 868 z "},"$":{"ha":1042,"x_min":0,"x_max":867,"o":"m 10 174 l 10 347 l 183 347 l 357 347 l 357 521 l 357 694 l 183 694 l 183 868 l 357 868 l 357 1042 l 183 1042 l 183 1215 l 357 1215 l 357 1389 l 531 1389 l 531 1215 l 704 1215 l 878 1215 l 878 1042 l 704 1042 l 531 1042 l 531 868 l 704 868 l 704 694 l 531 694 l 531 521 l 531 347 l 704 347 l 704 174 l 531 174 l 531 0 l 357 0 l 357 174 l 183 174 l 10 174 l 10 174 l 10 174 m 10 868 l 10 1042 l 183 1042 l 183 868 l 10 868 l 10 868 l 10 868 m 704 347 l 704 521 l 704 694 l 878 694 l 878 521 l 878 347 l 704 347 l 704 347 l 704 347 z "},"%":{"ha":1389,"x_min":0,"x_max":1214,"o":"m 704 868 l 704 1042 l 704 1215 l 878 1215 l 878 1042 l 878 868 l 704 868 l 704 868 l 704 868 m 531 521 l 531 694 l 531 868 l 704 868 l 704 694 l 704 521 l 531 521 l 531 521 l 531 521 m 183 1215 l 183 1389 l 357 1389 l 357 1215 l 183 1215 l 183 1215 l 183 1215 m 10 1042 l 10 1215 l 183 1215 l 183 1042 l 10 1042 l 10 1042 l 10 1042 m 183 868 l 183 1042 l 357 1042 l 357 868 l 183 868 l 183 868 l 183 868 m 357 1042 l 357 1215 l 531 1215 l 531 1042 l 357 1042 l 357 1042 l 357 1042 m 878 1215 l 878 1389 l 1051 1389 l 1051 1215 l 878 1215 l 878 1215 l 878 1215 m 357 174 l 357 347 l 357 521 l 531 521 l 531 347 l 531 174 l 357 174 l 357 174 l 357 174 m 183 0 l 183 174 l 357 174 l 357 0 l 183 0 l 183 0 l 183 0 m 878 0 l 878 174 l 1051 174 l 1051 0 l 878 0 l 878 0 l 878 0 m 704 174 l 704 347 l 878 347 l 878 174 l 704 174 l 704 174 l 704 174 m 878 347 l 878 521 l 1051 521 l 1051 347 l 878 347 l 878 347 l 878 347 m 1051 174 l 1051 347 l 1225 347 l 1225 174 l 1051 174 l 1051 174 l 1051 174 z "},"&":{"ha":1042,"x_min":0,"x_max":867,"o":"m 183 0 l 183 174 l 357 174 l 531 174 l 531 0 l 357 0 l 183 0 l 183 0 l 183 0 m 531 174 l 531 347 l 531 521 l 704 521 l 704 347 l 704 174 l 531 174 l 531 174 l 531 174 m 10 174 l 10 347 l 10 521 l 10 694 l 183 694 l 183 521 l 183 347 l 183 174 l 10 174 l 10 174 l 10 174 m 183 1215 l 183 1389 l 357 1389 l 531 1389 l 531 1215 l 357 1215 l 183 1215 l 183 1215 l 183 1215 m 10 868 l 10 1042 l 10 1215 l 183 1215 l 183 1042 l 183 868 l 10 868 l 10 868 l 10 868 m 531 868 l 531 1042 l 531 1215 l 704 1215 l 704 1042 l 704 868 l 531 868 l 531 868 l 531 868 m 183 694 l 183 868 l 357 868 l 531 868 l 531 694 l 531 521 l 357 521 l 357 694 l 183 694 l 183 694 l 183 694 m 704 521 l 704 694 l 878 694 l 878 521 l 704 521 l 704 521 l 704 521 m 704 0 l 704 174 l 878 174 l 878 0 l 704 0 l 704 0 l 704 0 z "},"'":{"ha":521,"x_min":0,"x_max":346,"o":"m 183 1215 l 183 1389 l 357 1389 l 357 1215 l 183 1215 l 183 1215 l 183 1215 m 10 1042 l 10 1215 l 183 1215 l 183 1042 l 10 1042 l 10 1042 l 10 1042 z "},"(":{"ha":521,"x_min":0,"x_max":346,"o":"m 183 0 l 183 174 l 357 174 l 357 0 l 183 0 l 183 0 l 183 0 m 10 174 l 10 347 l 10 521 l 10 694 l 10 868 l 10 1042 l 10 1215 l 183 1215 l 183 1042 l 183 868 l 183 694 l 183 521 l 183 347 l 183 174 l 10 174 l 10 174 l 10 174 m 183 1215 l 183 1389 l 357 1389 l 357 1215 l 183 1215 l 183 1215 l 183 1215 z "},")":{"ha":521,"x_min":0,"x_max":346,"o":"m 10 0 l 10 174 l 183 174 l 183 0 l 10 0 l 10 0 l 10 0 m 183 174 l 183 347 l 183 521 l 183 694 l 183 868 l 183 1042 l 183 1215 l 357 1215 l 357 1042 l 357 868 l 357 694 l 357 521 l 357 347 l 357 174 l 183 174 l 183 174 l 183 174 m 10 1215 l 10 1389 l 183 1389 l 183 1215 l 10 1215 l 10 1215 l 10 1215 z "},"*":{"ha":1042,"x_min":0,"x_max":867,"o":"m 10 521 l 10 694 l 183 694 l 183 521 l 10 521 l 10 521 l 10 521 m 10 1215 l 10 1389 l 183 1389 l 183 1215 l 10 1215 l 10 1215 l 10 1215 m 704 1215 l 704 1389 l 878 1389 l 878 1215 l 704 1215 l 704 1215 l 704 1215 m 10 868 l 10 1042 l 183 1042 l 183 1215 l 357 1215 l 357 1042 l 531 1042 l 531 1215 l 704 1215 l 704 1042 l 878 1042 l 878 868 l 704 868 l 704 694 l 531 694 l 531 868 l 357 868 l 357 694 l 183 694 l 183 868 l 10 868 l 10 868 l 10 868 m 704 521 l 704 694 l 878 694 l 878 521 l 704 521 l 704 521 l 704 521 m 357 1215 l 357 1389 l 531 1389 l 531 1215 l 357 1215 l 357 1215 l 357 1215 m 357 521 l 357 694 l 531 694 l 531 521 l 357 521 l 357 521 l 357 521 z "},"+":{"ha":1042,"x_min":0,"x_max":867,"o":"m 10 521 l 10 694 l 183 694 l 357 694 l 357 868 l 357 1042 l 531 1042 l 531 868 l 531 694 l 704 694 l 878 694 l 878 521 l 704 521 l 531 521 l 531 347 l 531 174 l 357 174 l 357 347 l 357 521 l 183 521 l 10 521 l 10 521 l 10 521 z "},",":{"ha":521,"x_min":0,"x_max":346,"o":"m 10 0 l 10 174 l 183 174 l 183 0 l 10 0 l 10 0 l 10 0 m 183 174 l 183 347 l 357 347 l 357 174 l 183 174 l 183 174 l 183 174 z "},"-":{"ha":868,"x_min":0,"x_max":693,"o":"m 10 521 l 10 694 l 183 694 l 357 694 l 531 694 l 704 694 l 704 521 l 531 521 l 357 521 l 183 521 l 10 521 l 10 521 l 10 521 z "},".":{"ha":347,"x_min":0,"x_max":172,"o":"m 10 0 l 10 174 l 183 174 l 183 0 l 10 0 l 10 0 l 10 0 z "},"/":{"ha":868,"x_min":0,"x_max":693,"o":"m 10 0 l 10 174 l 10 347 l 183 347 l 183 174 l 183 0 l 10 0 l 10 0 l 10 0 m 183 347 l 183 521 l 183 694 l 357 694 l 357 521 l 357 347 l 183 347 l 183 347 l 183 347 m 357 694 l 357 868 l 357 1042 l 531 1042 l 531 868 l 531 694 l 357 694 l 357 694 l 357 694 m 531 1042 l 531 1215 l 531 1389 l 704 1389 l 704 1215 l 704 1042 l 531 1042 l 531 1042 l 531 1042 z "},":":{"ha":347,"x_min":0,"x_max":172,"o":"m 10 868 l 10 1042 l 183 1042 l 183 868 l 10 868 l 10 868 l 10 868 m 10 347 l 10 521 l 183 521 l 183 347 l 10 347 l 10 347 l 10 347 z "},";":{"ha":521,"x_min":0,"x_max":346,"o":"m 183 347 l 183 521 l 357 521 l 357 347 l 183 347 l 183 347 l 183 347 m 10 174 l 10 347 l 183 347 l 183 174 l 10 174 l 10 174 l 10 174 m 183 868 l 183 1042 l 357 1042 l 357 868 l 183 868 l 183 868 l 183 868 z "},"<":{"ha":868,"x_min":0,"x_max":693,"o":"m 10 521 l 10 694 l 183 694 l 183 521 l 10 521 l 10 521 l 10 521 m 183 694 l 183 868 l 357 868 l 357 694 l 183 694 l 183 694 l 183 694 m 357 868 l 357 1042 l 531 1042 l 531 868 l 357 868 l 357 868 l 357 868 m 531 1042 l 531 1215 l 704 1215 l 704 1042 l 531 1042 l 531 1042 l 531 1042 m 183 347 l 183 521 l 357 521 l 357 347 l 183 347 l 183 347 l 183 347 m 357 174 l 357 347 l 531 347 l 531 174 l 357 174 l 357 174 l 357 174 m 531 0 l 531 174 l 704 174 l 704 0 l 531 0 l 531 0 l 531 0 z "},"=":{"ha":868,"x_min":0,"x_max":693,"o":"m 10 347 l 10 521 l 183 521 l 357 521 l 531 521 l 704 521 l 704 347 l 531 347 l 357 347 l 183 347 l 10 347 l 10 347 l 10 347 m 10 694 l 10 868 l 183 868 l 357 868 l 531 868 l 704 868 l 704 694 l 531 694 l 357 694 l 183 694 l 10 694 l 10 694 l 10 694 z "},">":{"ha":868,"x_min":0,"x_max":693,"o":"m 10 1042 l 10 1215 l 183 1215 l 183 1042 l 10 1042 l 10 1042 l 10 1042 m 183 868 l 183 1042 l 357 1042 l 357 868 l 183 868 l 183 868 l 183 868 m 357 694 l 357 868 l 531 868 l 531 694 l 357 694 l 357 694 l 357 694 m 531 521 l 531 694 l 704 694 l 704 521 l 531 521 l 531 521 l 531 521 m 357 347 l 357 521 l 531 521 l 531 347 l 357 347 l 357 347 l 357 347 m 183 174 l 183 347 l 357 347 l 357 174 l 183 174 l 183 174 l 183 174 m 10 0 l 10 174 l 183 174 l 183 0 l 10 0 l 10 0 l 10 0 z "},"?":{"ha":1042,"x_min":0,"x_max":867,"o":"m 10 1042 l 10 1215 l 183 1215 l 183 1042 l 10 1042 l 10 1042 l 10 1042 m 183 1215 l 183 1389 l 357 1389 l 531 1389 l 704 1389 l 704 1215 l 531 1215 l 357 1215 l 183 1215 l 183 1215 l 183 1215 m 704 868 l 704 1042 l 704 1215 l 878 1215 l 878 1042 l 878 868 l 704 868 l 704 868 l 704 868 m 531 694 l 531 868 l 704 868 l 704 694 l 531 694 l 531 694 l 531 694 m 357 347 l 357 521 l 357 694 l 531 694 l 531 521 l 531 347 l 357 347 l 357 347 l 357 347 m 357 0 l 357 174 l 531 174 l 531 0 l 357 0 l 357 0 l 357 0 z "},"@":{"ha":1215,"x_min":0,"x_max":1040,"o":"m 10 174 l 10 347 l 10 521 l 10 694 l 10 868 l 10 1042 l 183 1042 l 183 868 l 183 694 l 183 521 l 183 347 l 183 174 l 10 174 l 10 174 l 10 174 m 183 0 l 183 174 l 357 174 l 531 174 l 704 174 l 878 174 l 1051 174 l 1051 0 l 878 0 l 704 0 l 531 0 l 357 0 l 183 0 l 183 0 l 183 0 m 357 347 l 357 521 l 357 694 l 531 694 l 531 521 l 704 521 l 878 521 l 878 694 l 704 694 l 531 694 l 531 868 l 704 868 l 878 868 l 878 1042 l 1051 1042 l 1051 868 l 1051 694 l 1051 521 l 1051 347 l 878 347 l 704 347 l 531 347 l 357 347 l 357 347 l 357 347 m 183 1042 l 183 1215 l 357 1215 l 531 1215 l 704 1215 l 878 1215 l 878 1042 l 704 1042 l 531 1042 l 357 1042 l 183 1042 l 183 1042 l 183 1042 z "},"A":{"ha":1042,"x_min":0,"x_max":867,"o":"m 10 0 l 10 174 l 10 347 l 10 521 l 10 694 l 10 868 l 10 1042 l 10 1215 l 183 1215 l 183 1042 l 183 868 l 183 694 l 183 521 l 357 521 l 531 521 l 704 521 l 704 694 l 704 868 l 704 1042 l 704 1215 l 878 1215 l 878 1042 l 878 868 l 878 694 l 878 521 l 878 347 l 878 174 l 878 0 l 704 0 l 704 174 l 704 347 l 531 347 l 357 347 l 183 347 l 183 174 l 183 0 l 10 0 l 10 0 l 10 0 m 183 1215 l 183 1389 l 357 1389 l 531 1389 l 704 1389 l 704 1215 l 531 1215 l 357 1215 l 183 1215 l 183 1215 l 183 1215 z "},"B":{"ha":1042,"x_min":0,"x_max":867,"o":"m 10 0 l 10 174 l 10 347 l 10 521 l 10 694 l 10 868 l 10 1042 l 10 1215 l 10 1389 l 183 1389 l 357 1389 l 531 1389 l 704 1389 l 704 1215 l 531 1215 l 357 1215 l 183 1215 l 183 1042 l 183 868 l 357 868 l 531 868 l 704 868 l 704 694 l 531 694 l 357 694 l 183 694 l 183 521 l 183 347 l 183 174 l 357 174 l 531 174 l 704 174 l 704 0 l 531 0 l 357 0 l 183 0 l 10 0 l 10 0 l 10 0 m 704 174 l 704 347 l 704 521 l 704 694 l 878 694 l 878 521 l 878 347 l 878 174 l 704 174 l 704 174 l 704 174 m 704 868 l 704 1042 l 704 1215 l 878 1215 l 878 1042 l 878 868 l 704 868 l 704 868 l 704 868 z "},"C":{"ha":1042,"x_min":0,"x_max":867,"o":"m 183 0 l 183 174 l 357 174 l 531 174 l 704 174 l 704 0 l 531 0 l 357 0 l 183 0 l 183 0 l 183 0 m 10 174 l 10 347 l 10 521 l 10 694 l 10 868 l 10 1042 l 10 1215 l 183 1215 l 183 1042 l 183 868 l 183 694 l 183 521 l 183 347 l 183 174 l 10 174 l 10 174 l 10 174 m 704 174 l 704 347 l 878 347 l 878 174 l 704 174 l 704 174 l 704 174 m 704 1042 l 704 1215 l 878 1215 l 878 1042 l 704 1042 l 704 1042 l 704 1042 m 183 1215 l 183 1389 l 357 1389 l 531 1389 l 704 1389 l 704 1215 l 531 1215 l 357 1215 l 183 1215 l 183 1215 l 183 1215 z "},"D":{"ha":1042,"x_min":0,"x_max":867,"o":"m 10 0 l 10 174 l 10 347 l 10 521 l 10 694 l 10 868 l 10 1042 l 10 1215 l 10 1389 l 183 1389 l 357 1389 l 531 1389 l 704 1389 l 704 1215 l 531 1215 l 357 1215 l 183 1215 l 183 1042 l 183 868 l 183 694 l 183 521 l 183 347 l 183 174 l 357 174 l 531 174 l 704 174 l 704 0 l 531 0 l 357 0 l 183 0 l 10 0 l 10 0 l 10 0 m 704 174 l 704 347 l 704 521 l 704 694 l 704 868 l 704 1042 l 704 1215 l 878 1215 l 878 1042 l 878 868 l 878 694 l 878 521 l 878 347 l 878 174 l 704 174 l 704 174 l 704 174 z "},"E":{"ha":1042,"x_min":0,"x_max":867,"o":"m 10 0 l 10 174 l 10 347 l 10 521 l 10 694 l 10 868 l 10 1042 l 10 1215 l 10 1389 l 183 1389 l 357 1389 l 531 1389 l 704 1389 l 878 1389 l 878 1215 l 704 1215 l 531 1215 l 357 1215 l 183 1215 l 183 1042 l 357 1042 l 531 1042 l 704 1042 l 704 868 l 531 868 l 357 868 l 183 868 l 183 694 l 183 521 l 183 347 l 183 174 l 357 174 l 531 174 l 704 174 l 878 174 l 878 0 l 704 0 l 531 0 l 357 0 l 183 0 l 10 0 l 10 0 l 10 0 z "},"F":{"ha":1042,"x_min":0,"x_max":867,"o":"m 10 0 l 10 174 l 10 347 l 10 521 l 10 694 l 10 868 l 10 1042 l 10 1215 l 10 1389 l 183 1389 l 357 1389 l 531 1389 l 704 1389 l 878 1389 l 878 1215 l 704 1215 l 531 1215 l 357 1215 l 183 1215 l 183 1042 l 357 1042 l 531 1042 l 704 1042 l 704 868 l 531 868 l 357 868 l 183 868 l 183 694 l 183 521 l 183 347 l 183 174 l 183 0 l 10 0 l 10 0 l 10 0 z "},"G":{"ha":1042,"x_min":0,"x_max":867,"o":"m 183 0 l 183 174 l 357 174 l 531 174 l 704 174 l 704 0 l 531 0 l 357 0 l 183 0 l 183 0 l 183 0 m 10 174 l 10 347 l 10 521 l 10 694 l 10 868 l 10 1042 l 10 1215 l 183 1215 l 183 1042 l 183 868 l 183 694 l 183 521 l 183 347 l 183 174 l 10 174 l 10 174 l 10 174 m 531 347 l 531 521 l 704 521 l 878 521 l 878 347 l 878 174 l 704 174 l 704 347 l 531 347 l 531 347 l 531 347 m 704 1042 l 704 1215 l 878 1215 l 878 1042 l 704 1042 l 704 1042 l 704 1042 m 183 1215 l 183 1389 l 357 1389 l 531 1389 l 704 1389 l 704 1215 l 531 1215 l 357 1215 l 183 1215 l 183 1215 l 183 1215 z "},"H":{"ha":1042,"x_min":0,"x_max":867,"o":"m 10 0 l 10 174 l 10 347 l 10 521 l 10 694 l 10 868 l 10 1042 l 10 1215 l 10 1389 l 183 1389 l 183 1215 l 183 1042 l 183 868 l 183 694 l 183 521 l 357 521 l 531 521 l 704 521 l 704 694 l 704 868 l 704 1042 l 704 1215 l 704 1389 l 878 1389 l 878 1215 l 878 1042 l 878 868 l 878 694 l 878 521 l 878 347 l 878 174 l 878 0 l 704 0 l 704 174 l 704 347 l 531 347 l 357 347 l 183 347 l 183 174 l 183 0 l 10 0 l 10 0 l 10 0 z "},"I":{"ha":1042,"x_min":0,"x_max":867,"o":"m 10 0 l 10 174 l 183 174 l 357 174 l 357 347 l 357 521 l 357 694 l 357 868 l 357 1042 l 357 1215 l 183 1215 l 10 1215 l 10 1389 l 183 1389 l 357 1389 l 531 1389 l 704 1389 l 878 1389 l 878 1215 l 704 1215 l 531 1215 l 531 1042 l 531 868 l 531 694 l 531 521 l 531 347 l 531 174 l 704 174 l 878 174 l 878 0 l 704 0 l 531 0 l 357 0 l 183 0 l 10 0 l 10 0 l 10 0 z "},"J":{"ha":1042,"x_min":0,"x_max":867,"o":"m 183 0 l 183 174 l 357 174 l 531 174 l 704 174 l 704 0 l 531 0 l 357 0 l 183 0 l 183 0 l 183 0 m 10 174 l 10 347 l 10 521 l 183 521 l 183 347 l 183 174 l 10 174 l 10 174 l 10 174 m 357 1215 l 357 1389 l 531 1389 l 704 1389 l 878 1389 l 878 1215 l 878 1042 l 878 868 l 878 694 l 878 521 l 878 347 l 878 174 l 704 174 l 704 347 l 704 521 l 704 694 l 704 868 l 704 1042 l 704 1215 l 531 1215 l 357 1215 l 357 1215 l 357 1215 z "},"K":{"ha":1042,"x_min":0,"x_max":867,"o":"m 10 0 l 10 174 l 10 347 l 10 521 l 10 694 l 10 868 l 10 1042 l 10 1215 l 10 1389 l 183 1389 l 183 1215 l 183 1042 l 183 868 l 357 868 l 357 694 l 357 521 l 183 521 l 183 347 l 183 174 l 183 0 l 10 0 l 10 0 l 10 0 m 704 0 l 704 174 l 878 174 l 878 0 l 704 0 l 704 0 l 704 0 m 357 868 l 357 1042 l 531 1042 l 531 868 l 357 868 l 357 868 l 357 868 m 531 1042 l 531 1215 l 704 1215 l 704 1042 l 531 1042 l 531 1042 l 531 1042 m 704 1215 l 704 1389 l 878 1389 l 878 1215 l 704 1215 l 704 1215 l 704 1215 m 357 347 l 357 521 l 531 521 l 531 347 l 357 347 l 357 347 l 357 347 m 531 174 l 531 347 l 704 347 l 704 174 l 531 174 l 531 174 l 531 174 z "},"L":{"ha":1042,"x_min":0,"x_max":867,"o":"m 10 0 l 10 174 l 10 347 l 10 521 l 10 694 l 10 868 l 10 1042 l 10 1215 l 10 1389 l 183 1389 l 183 1215 l 183 1042 l 183 868 l 183 694 l 183 521 l 183 347 l 183 174 l 357 174 l 531 174 l 704 174 l 878 174 l 878 0 l 704 0 l 531 0 l 357 0 l 183 0 l 10 0 l 10 0 l 10 0 z "},"M":{"ha":1389,"x_min":0,"x_max":1214,"o":"m 10 0 l 10 174 l 10 347 l 10 521 l 10 694 l 10 868 l 10 1042 l 10 1215 l 10 1389 l 183 1389 l 183 1215 l 357 1215 l 357 1042 l 183 1042 l 183 868 l 183 694 l 183 521 l 183 347 l 183 174 l 183 0 l 10 0 l 10 0 l 10 0 m 878 1042 l 878 1215 l 1051 1215 l 1051 1389 l 1225 1389 l 1225 1215 l 1225 1042 l 1225 868 l 1225 694 l 1225 521 l 1225 347 l 1225 174 l 1225 0 l 1051 0 l 1051 174 l 1051 347 l 1051 521 l 1051 694 l 1051 868 l 1051 1042 l 878 1042 l 878 1042 l 878 1042 m 357 868 l 357 1042 l 531 1042 l 531 868 l 357 868 l 357 868 l 357 868 m 531 694 l 531 868 l 704 868 l 704 694 l 531 694 l 531 694 l 531 694 m 704 868 l 704 1042 l 878 1042 l 878 868 l 704 868 l 704 868 l 704 868 z "},"N":{"ha":1042,"x_min":0,"x_max":867,"o":"m 10 0 l 10 174 l 10 347 l 10 521 l 10 694 l 10 868 l 10 1042 l 10 1215 l 10 1389 l 183 1389 l 183 1215 l 357 1215 l 357 1042 l 357 868 l 183 868 l 183 694 l 183 521 l 183 347 l 183 174 l 183 0 l 10 0 l 10 0 l 10 0 m 531 347 l 531 521 l 531 694 l 704 694 l 704 868 l 704 1042 l 704 1215 l 704 1389 l 878 1389 l 878 1215 l 878 1042 l 878 868 l 878 694 l 878 521 l 878 347 l 878 174 l 878 0 l 704 0 l 704 174 l 704 347 l 531 347 l 531 347 l 531 347 m 357 694 l 357 868 l 531 868 l 531 694 l 357 694 l 357 694 l 357 694 z "},"O":{"ha":1042,"x_min":0,"x_max":867,"o":"m 183 0 l 183 174 l 357 174 l 531 174 l 704 174 l 704 0 l 531 0 l 357 0 l 183 0 l 183 0 l 183 0 m 10 174 l 10 347 l 10 521 l 10 694 l 10 868 l 10 1042 l 10 1215 l 183 1215 l 183 1042 l 183 868 l 183 694 l 183 521 l 183 347 l 183 174 l 10 174 l 10 174 l 10 174 m 704 174 l 704 347 l 704 521 l 704 694 l 704 868 l 704 1042 l 704 1215 l 878 1215 l 878 1042 l 878 868 l 878 694 l 878 521 l 878 347 l 878 174 l 704 174 l 704 174 l 704 174 m 183 1215 l 183 1389 l 357 1389 l 531 1389 l 704 1389 l 704 1215 l 531 1215 l 357 1215 l 183 1215 l 183 1215 l 183 1215 z "},"P":{"ha":1042,"x_min":0,"x_max":867,"o":"m 10 0 l 10 174 l 10 347 l 10 521 l 10 694 l 10 868 l 10 1042 l 10 1215 l 10 1389 l 183 1389 l 357 1389 l 531 1389 l 704 1389 l 704 1215 l 531 1215 l 357 1215 l 183 1215 l 183 1042 l 183 868 l 357 868 l 531 868 l 704 868 l 704 694 l 531 694 l 357 694 l 183 694 l 183 521 l 183 347 l 183 174 l 183 0 l 10 0 l 10 0 l 10 0 m 704 868 l 704 1042 l 704 1215 l 878 1215 l 878 1042 l 878 868 l 704 868 l 704 868 l 704 868 z "},"Q":{"ha":1042,"x_min":0,"x_max":1040,"o":"m 183 0 l 183 174 l 357 174 l 531 174 l 531 0 l 357 0 l 183 0 l 183 0 l 183 0 m 10 174 l 10 347 l 10 521 l 10 694 l 10 868 l 10 1042 l 10 1215 l 183 1215 l 183 1042 l 183 868 l 183 694 l 183 521 l 183 347 l 183 174 l 10 174 l 10 174 l 10 174 m 531 174 l 531 347 l 704 347 l 704 521 l 704 694 l 704 868 l 704 1042 l 704 1215 l 878 1215 l 878 1042 l 878 868 l 878 694 l 878 521 l 878 347 l 878 174 l 1051 174 l 1051 0 l 878 0 l 704 0 l 704 174 l 531 174 l 531 174 l 531 174 m 183 1215 l 183 1389 l 357 1389 l 531 1389 l 704 1389 l 704 1215 l 531 1215 l 357 1215 l 183 1215 l 183 1215 l 183 1215 m 357 347 l 357 521 l 531 521 l 531 347 l 357 347 l 357 347 l 357 347 z "},"R":{"ha":1042,"x_min":0,"x_max":867,"o":"m 10 0 l 10 174 l 10 347 l 10 521 l 10 694 l 10 868 l 10 1042 l 10 1215 l 10 1389 l 183 1389 l 357 1389 l 531 1389 l 704 1389 l 704 1215 l 531 1215 l 357 1215 l 183 1215 l 183 1042 l 183 868 l 357 868 l 531 868 l 704 868 l 704 694 l 531 694 l 531 521 l 357 521 l 357 694 l 183 694 l 183 521 l 183 347 l 183 174 l 183 0 l 10 0 l 10 0 l 10 0 m 704 868 l 704 1042 l 704 1215 l 878 1215 l 878 1042 l 878 868 l 704 868 l 704 868 l 704 868 m 704 0 l 704 174 l 704 347 l 878 347 l 878 174 l 878 0 l 704 0 l 704 0 l 704 0 m 531 347 l 531 521 l 704 521 l 704 347 l 531 347 l 531 347 l 531 347 z "},"S":{"ha":1042,"x_min":0,"x_max":867,"o":"m 183 0 l 183 174 l 357 174 l 531 174 l 704 174 l 704 0 l 531 0 l 357 0 l 183 0 l 183 0 l 183 0 m 10 174 l 10 347 l 183 347 l 183 174 l 10 174 l 10 174 l 10 174 m 704 174 l 704 347 l 704 521 l 704 694 l 878 694 l 878 521 l 878 347 l 878 174 l 704 174 l 704 174 l 704 174 m 704 1042 l 704 1215 l 878 1215 l 878 1042 l 704 1042 l 704 1042 l 704 1042 m 183 1215 l 183 1389 l 357 1389 l 531 1389 l 704 1389 l 704 1215 l 531 1215 l 357 1215 l 183 1215 l 183 1215 l 183 1215 m 10 868 l 10 1042 l 10 1215 l 183 1215 l 183 1042 l 183 868 l 10 868 l 10 868 l 10 868 m 183 694 l 183 868 l 357 868 l 531 868 l 704 868 l 704 694 l 531 694 l 357 694 l 183 694 l 183 694 l 183 694 z "},"T":{"ha":1042,"x_min":0,"x_max":867,"o":"m 10 1215 l 10 1389 l 183 1389 l 357 1389 l 531 1389 l 704 1389 l 878 1389 l 878 1215 l 704 1215 l 531 1215 l 531 1042 l 531 868 l 531 694 l 531 521 l 531 347 l 531 174 l 531 0 l 357 0 l 357 174 l 357 347 l 357 521 l 357 694 l 357 868 l 357 1042 l 357 1215 l 183 1215 l 10 1215 l 10 1215 l 10 1215 z "},"U":{"ha":1042,"x_min":0,"x_max":867,"o":"m 183 0 l 183 174 l 357 174 l 531 174 l 704 174 l 704 0 l 531 0 l 357 0 l 183 0 l 183 0 l 183 0 m 10 174 l 10 347 l 10 521 l 10 694 l 10 868 l 10 1042 l 10 1215 l 10 1389 l 183 1389 l 183 1215 l 183 1042 l 183 868 l 183 694 l 183 521 l 183 347 l 183 174 l 10 174 l 10 174 l 10 174 m 704 174 l 704 347 l 704 521 l 704 694 l 704 868 l 704 1042 l 704 1215 l 704 1389 l 878 1389 l 878 1215 l 878 1042 l 878 868 l 878 694 l 878 521 l 878 347 l 878 174 l 704 174 l 704 174 l 704 174 z "},"V":{"ha":1042,"x_min":0,"x_max":867,"o":"m 357 0 l 357 174 l 531 174 l 531 0 l 357 0 l 357 0 l 357 0 m 183 174 l 183 347 l 357 347 l 357 174 l 183 174 l 183 174 l 183 174 m 531 174 l 531 347 l 704 347 l 704 174 l 531 174 l 531 174 l 531 174 m 10 347 l 10 521 l 10 694 l 10 868 l 10 1042 l 10 1215 l 10 1389 l 183 1389 l 183 1215 l 183 1042 l 183 868 l 183 694 l 183 521 l 183 347 l 10 347 l 10 347 l 10 347 m 704 347 l 704 521 l 704 694 l 704 868 l 704 1042 l 704 1215 l 704 1389 l 878 1389 l 878 1215 l 878 1042 l 878 868 l 878 694 l 878 521 l 878 347 l 704 347 l 704 347 l 704 347 z "},"W":{"ha":1042,"x_min":0,"x_max":867,"o":"m 10 347 l 10 521 l 10 694 l 10 868 l 10 1042 l 10 1215 l 10 1389 l 183 1389 l 183 1215 l 183 1042 l 183 868 l 183 694 l 183 521 l 183 347 l 10 347 l 10 347 l 10 347 m 704 347 l 704 521 l 704 694 l 704 868 l 704 1042 l 704 1215 l 704 1389 l 878 1389 l 878 1215 l 878 1042 l 878 868 l 878 694 l 878 521 l 878 347 l 704 347 l 704 347 l 704 347 m 183 0 l 183 174 l 183 347 l 357 347 l 357 174 l 357 0 l 183 0 l 183 0 l 183 0 m 531 0 l 531 174 l 531 347 l 704 347 l 704 174 l 704 0 l 531 0 l 531 0 l 531 0 m 357 347 l 357 521 l 357 694 l 531 694 l 531 521 l 531 347 l 357 347 l 357 347 l 357 347 z "},"X":{"ha":1042,"x_min":0,"x_max":867,"o":"m 183 868 l 183 1042 l 357 1042 l 357 868 l 183 868 l 183 868 l 183 868 m 531 868 l 531 1042 l 704 1042 l 704 868 l 531 868 l 531 868 l 531 868 m 10 1042 l 10 1215 l 10 1389 l 183 1389 l 183 1215 l 183 1042 l 10 1042 l 10 1042 l 10 1042 m 704 1042 l 704 1215 l 704 1389 l 878 1389 l 878 1215 l 878 1042 l 704 1042 l 704 1042 l 704 1042 m 357 521 l 357 694 l 357 868 l 531 868 l 531 694 l 531 521 l 357 521 l 357 521 l 357 521 m 183 347 l 183 521 l 357 521 l 357 347 l 183 347 l 183 347 l 183 347 m 10 0 l 10 174 l 10 347 l 183 347 l 183 174 l 183 0 l 10 0 l 10 0 l 10 0 m 704 0 l 704 174 l 704 347 l 878 347 l 878 174 l 878 0 l 704 0 l 704 0 l 704 0 m 531 347 l 531 521 l 704 521 l 704 347 l 531 347 l 531 347 l 531 347 z "},"Y":{"ha":1042,"x_min":0,"x_max":867,"o":"m 357 0 l 357 174 l 357 347 l 357 521 l 357 694 l 531 694 l 531 521 l 531 347 l 531 174 l 531 0 l 357 0 l 357 0 l 357 0 m 183 694 l 183 868 l 357 868 l 357 694 l 183 694 l 183 694 l 183 694 m 531 694 l 531 868 l 704 868 l 704 694 l 531 694 l 531 694 l 531 694 m 10 868 l 10 1042 l 10 1215 l 10 1389 l 183 1389 l 183 1215 l 183 1042 l 183 868 l 10 868 l 10 868 l 10 868 m 704 868 l 704 1042 l 704 1215 l 704 1389 l 878 1389 l 878 1215 l 878 1042 l 878 868 l 704 868 l 704 868 l 704 868 z "},"Z":{"ha":1042,"x_min":0,"x_max":867,"o":"m 10 0 l 10 174 l 10 347 l 10 521 l 183 521 l 183 347 l 183 174 l 357 174 l 531 174 l 704 174 l 878 174 l 878 0 l 704 0 l 531 0 l 357 0 l 183 0 l 10 0 l 10 0 l 10 0 m 10 1215 l 10 1389 l 183 1389 l 357 1389 l 531 1389 l 704 1389 l 878 1389 l 878 1215 l 878 1042 l 704 1042 l 704 1215 l 531 1215 l 357 1215 l 183 1215 l 10 1215 l 10 1215 l 10 1215 m 531 868 l 531 1042 l 704 1042 l 704 868 l 531 868 l 531 868 l 531 868 m 357 694 l 357 868 l 531 868 l 531 694 l 357 694 l 357 694 l 357 694 m 183 521 l 183 694 l 357 694 l 357 521 l 183 521 l 183 521 l 183 521 z "},"[":{"ha":521,"x_min":0,"x_max":346,"o":"m 10 0 l 10 174 l 10 347 l 10 521 l 10 694 l 10 868 l 10 1042 l 10 1215 l 10 1389 l 183 1389 l 357 1389 l 357 1215 l 183 1215 l 183 1042 l 183 868 l 183 694 l 183 521 l 183 347 l 183 174 l 357 174 l 357 0 l 183 0 l 10 0 l 10 0 l 10 0 z "},"\\":{"ha":868,"x_min":0,"x_max":693,"o":"m 10 1042 l 10 1215 l 10 1389 l 183 1389 l 183 1215 l 183 1042 l 10 1042 l 10 1042 l 10 1042 m 183 694 l 183 868 l 183 1042 l 357 1042 l 357 868 l 357 694 l 183 694 l 183 694 l 183 694 m 357 347 l 357 521 l 357 694 l 531 694 l 531 521 l 531 347 l 357 347 l 357 347 l 357 347 m 531 0 l 531 174 l 531 347 l 704 347 l 704 174 l 704 0 l 531 0 l 531 0 l 531 0 z "},"]":{"ha":521,"x_min":0,"x_max":346,"o":"m 10 0 l 10 174 l 183 174 l 183 347 l 183 521 l 183 694 l 183 868 l 183 1042 l 183 1215 l 10 1215 l 10 1389 l 183 1389 l 357 1389 l 357 1215 l 357 1042 l 357 868 l 357 694 l 357 521 l 357 347 l 357 174 l 357 0 l 183 0 l 10 0 l 10 0 l 10 0 z "},"^":{"ha":1042,"x_min":0,"x_max":867,"o":"m 10 868 l 10 1042 l 183 1042 l 183 868 l 10 868 l 10 868 l 10 868 m 357 1215 l 357 1389 l 531 1389 l 531 1215 l 357 1215 l 357 1215 l 357 1215 m 183 1042 l 183 1215 l 357 1215 l 357 1042 l 183 1042 l 183 1042 l 183 1042 m 531 1042 l 531 1215 l 704 1215 l 704 1042 l 531 1042 l 531 1042 l 531 1042 m 704 868 l 704 1042 l 878 1042 l 878 868 l 704 868 l 704 868 l 704 868 z "},"_":{"ha":868,"x_min":0,"x_max":693,"o":"m 10 0 l 10 174 l 183 174 l 357 174 l 531 174 l 704 174 l 704 0 l 531 0 l 357 0 l 183 0 l 10 0 l 10 0 l 10 0 z "},"`":{"ha":521,"x_min":0,"x_max":346,"o":"m 10 1215 l 10 1389 l 183 1389 l 183 1215 l 10 1215 l 10 1215 l 10 1215 m 183 1042 l 183 1215 l 357 1215 l 357 1042 l 183 1042 l 183 1042 l 183 1042 z "},"a":{"ha":868,"x_min":0,"x_max":693,"o":"m 10 0 l 10 174 l 10 347 l 10 521 l 10 694 l 10 868 l 183 868 l 183 694 l 183 521 l 357 521 l 531 521 l 531 694 l 531 868 l 704 868 l 704 694 l 704 521 l 704 347 l 704 174 l 704 0 l 531 0 l 531 174 l 531 347 l 357 347 l 183 347 l 183 174 l 183 0 l 10 0 l 10 0 l 10 0 m 183 868 l 183 1042 l 357 1042 l 531 1042 l 531 868 l 357 868 l 183 868 l 183 868 l 183 868 z "},"b":{"ha":868,"x_min":0,"x_max":693,"o":"m 10 0 l 10 174 l 10 347 l 10 521 l 10 694 l 10 868 l 10 1042 l 183 1042 l 357 1042 l 531 1042 l 531 868 l 357 868 l 183 868 l 183 694 l 357 694 l 531 694 l 531 521 l 357 521 l 183 521 l 183 347 l 183 174 l 357 174 l 531 174 l 531 0 l 357 0 l 183 0 l 10 0 l 10 0 l 10 0 m 531 174 l 531 347 l 531 521 l 704 521 l 704 347 l 704 174 l 531 174 l 531 174 l 531 174 m 531 694 l 531 868 l 704 868 l 704 694 l 531 694 l 531 694 l 531 694 z "},"c":{"ha":868,"x_min":0,"x_max":693,"o":"m 183 0 l 183 174 l 357 174 l 531 174 l 704 174 l 704 0 l 531 0 l 357 0 l 183 0 l 183 0 l 183 0 m 10 174 l 10 347 l 10 521 l 10 694 l 10 868 l 183 868 l 183 694 l 183 521 l 183 347 l 183 174 l 10 174 l 10 174 l 10 174 m 183 868 l 183 1042 l 357 1042 l 531 1042 l 704 1042 l 704 868 l 531 868 l 357 868 l 183 868 l 183 868 l 183 868 z "},"d":{"ha":868,"x_min":0,"x_max":693,"o":"m 10 0 l 10 174 l 10 347 l 10 521 l 10 694 l 10 868 l 10 1042 l 183 1042 l 357 1042 l 531 1042 l 531 868 l 357 868 l 183 868 l 183 694 l 183 521 l 183 347 l 183 174 l 357 174 l 531 174 l 531 0 l 357 0 l 183 0 l 10 0 l 10 0 l 10 0 m 531 174 l 531 347 l 531 521 l 531 694 l 531 868 l 704 868 l 704 694 l 704 521 l 704 347 l 704 174 l 531 174 l 531 174 l 531 174 z "},"e":{"ha":868,"x_min":0,"x_max":693,"o":"m 10 0 l 10 174 l 10 347 l 10 521 l 10 694 l 10 868 l 10 1042 l 183 1042 l 357 1042 l 531 1042 l 704 1042 l 704 868 l 531 868 l 357 868 l 183 868 l 183 694 l 357 694 l 531 694 l 704 694 l 704 521 l 531 521 l 357 521 l 183 521 l 183 347 l 183 174 l 357 174 l 531 174 l 704 174 l 704 0 l 531 0 l 357 0 l 183 0 l 10 0 l 10 0 l 10 0 z "},"f":{"ha":868,"x_min":0,"x_max":693,"o":"m 10 0 l 10 174 l 10 347 l 10 521 l 10 694 l 10 868 l 10 1042 l 183 1042 l 357 1042 l 531 1042 l 704 1042 l 704 868 l 531 868 l 357 868 l 183 868 l 183 694 l 357 694 l 531 694 l 531 521 l 357 521 l 183 521 l 183 347 l 183 174 l 183 0 l 10 0 l 10 0 l 10 0 z "},"g":{"ha":868,"x_min":0,"x_max":693,"o":"m 357 347 l 357 521 l 531 521 l 704 521 l 704 347 l 704 174 l 531 174 l 531 347 l 357 347 l 357 347 l 357 347 m 10 174 l 10 347 l 10 521 l 10 694 l 10 868 l 183 868 l 183 694 l 183 521 l 183 347 l 183 174 l 10 174 l 10 174 l 10 174 m 183 0 l 183 174 l 357 174 l 531 174 l 531 0 l 357 0 l 183 0 l 183 0 l 183 0 m 183 868 l 183 1042 l 357 1042 l 531 1042 l 531 868 l 357 868 l 183 868 l 183 868 l 183 868 m 531 694 l 531 868 l 704 868 l 704 694 l 531 694 l 531 694 l 531 694 z "},"h":{"ha":868,"x_min":0,"x_max":693,"o":"m 10 0 l 10 174 l 10 347 l 10 521 l 10 694 l 10 868 l 10 1042 l 183 1042 l 183 868 l 183 694 l 183 521 l 357 521 l 531 521 l 531 694 l 531 868 l 531 1042 l 704 1042 l 704 868 l 704 694 l 704 521 l 704 347 l 704 174 l 704 0 l 531 0 l 531 174 l 531 347 l 357 347 l 183 347 l 183 174 l 183 0 l 10 0 l 10 0 l 10 0 z "},"i":{"ha":694,"x_min":0,"x_max":519,"o":"m 10 0 l 10 174 l 183 174 l 183 347 l 183 521 l 183 694 l 183 868 l 10 868 l 10 1042 l 183 1042 l 357 1042 l 531 1042 l 531 868 l 357 868 l 357 694 l 357 521 l 357 347 l 357 174 l 531 174 l 531 0 l 357 0 l 183 0 l 10 0 l 10 0 l 10 0 z "},"j":{"ha":868,"x_min":0,"x_max":693,"o":"m 183 0 l 183 174 l 357 174 l 531 174 l 531 0 l 357 0 l 183 0 l 183 0 l 183 0 m 531 174 l 531 347 l 531 521 l 531 694 l 531 868 l 531 1042 l 704 1042 l 704 868 l 704 694 l 704 521 l 704 347 l 704 174 l 531 174 l 531 174 l 531 174 m 10 174 l 10 347 l 183 347 l 183 174 l 10 174 l 10 174 l 10 174 z "},"k":{"ha":868,"x_min":0,"x_max":693,"o":"m 10 0 l 10 174 l 10 347 l 10 521 l 10 694 l 10 868 l 10 1042 l 183 1042 l 183 868 l 183 694 l 357 694 l 357 521 l 183 521 l 183 347 l 183 174 l 183 0 l 10 0 l 10 0 l 10 0 m 531 0 l 531 174 l 531 347 l 704 347 l 704 174 l 704 0 l 531 0 l 531 0 l 531 0 m 357 347 l 357 521 l 531 521 l 531 347 l 357 347 l 357 347 l 357 347 m 531 868 l 531 1042 l 704 1042 l 704 868 l 531 868 l 531 868 l 531 868 m 357 694 l 357 868 l 531 868 l 531 694 l 357 694 l 357 694 l 357 694 z "},"l":{"ha":868,"x_min":0,"x_max":693,"o":"m 10 0 l 10 174 l 10 347 l 10 521 l 10 694 l 10 868 l 10 1042 l 183 1042 l 183 868 l 183 694 l 183 521 l 183 347 l 183 174 l 357 174 l 531 174 l 704 174 l 704 0 l 531 0 l 357 0 l 183 0 l 10 0 l 10 0 l 10 0 z "},"m":{"ha":1042,"x_min":0,"x_max":867,"o":"m 10 0 l 10 174 l 10 347 l 10 521 l 10 694 l 10 868 l 10 1042 l 183 1042 l 183 868 l 357 868 l 357 694 l 183 694 l 183 521 l 183 347 l 183 174 l 183 0 l 10 0 l 10 0 l 10 0 m 357 0 l 357 174 l 357 347 l 357 521 l 357 694 l 531 694 l 531 521 l 531 347 l 531 174 l 531 0 l 357 0 l 357 0 l 357 0 m 531 694 l 531 868 l 704 868 l 704 1042 l 878 1042 l 878 868 l 878 694 l 878 521 l 878 347 l 878 174 l 878 0 l 704 0 l 704 174 l 704 347 l 704 521 l 704 694 l 531 694 l 531 694 l 531 694 z "},"n":{"ha":868,"x_min":0,"x_max":693,"o":"m 10 0 l 10 174 l 10 347 l 10 521 l 10 694 l 10 868 l 10 1042 l 183 1042 l 183 868 l 357 868 l 357 694 l 183 694 l 183 521 l 183 347 l 183 174 l 183 0 l 10 0 l 10 0 l 10 0 m 357 347 l 357 521 l 357 694 l 531 694 l 531 868 l 531 1042 l 704 1042 l 704 868 l 704 694 l 704 521 l 704 347 l 704 174 l 704 0 l 531 0 l 531 174 l 531 347 l 357 347 l 357 347 l 357 347 z "},"o":{"ha":868,"x_min":0,"x_max":693,"o":"m 183 0 l 183 174 l 357 174 l 531 174 l 531 0 l 357 0 l 183 0 l 183 0 l 183 0 m 10 174 l 10 347 l 10 521 l 10 694 l 10 868 l 183 868 l 183 694 l 183 521 l 183 347 l 183 174 l 10 174 l 10 174 l 10 174 m 531 174 l 531 347 l 531 521 l 531 694 l 531 868 l 704 868 l 704 694 l 704 521 l 704 347 l 704 174 l 531 174 l 531 174 l 531 174 m 183 868 l 183 1042 l 357 1042 l 531 1042 l 531 868 l 357 868 l 183 868 l 183 868 l 183 868 z "},"p":{"ha":868,"x_min":0,"x_max":693,"o":"m 10 0 l 10 174 l 10 347 l 10 521 l 10 694 l 10 868 l 10 1042 l 183 1042 l 357 1042 l 531 1042 l 531 868 l 357 868 l 183 868 l 183 694 l 183 521 l 357 521 l 531 521 l 531 347 l 357 347 l 183 347 l 183 174 l 183 0 l 10 0 l 10 0 l 10 0 m 531 521 l 531 694 l 531 868 l 704 868 l 704 694 l 704 521 l 531 521 l 531 521 l 531 521 z "},"q":{"ha":1042,"x_min":0,"x_max":867,"o":"m 183 868 l 183 1042 l 357 1042 l 531 1042 l 531 868 l 357 868 l 183 868 l 183 868 l 183 868 m 10 174 l 10 347 l 10 521 l 10 694 l 10 868 l 183 868 l 183 694 l 183 521 l 183 347 l 183 174 l 10 174 l 10 174 l 10 174 m 357 347 l 357 521 l 531 521 l 531 694 l 531 868 l 704 868 l 704 694 l 704 521 l 704 347 l 704 174 l 531 174 l 531 347 l 357 347 l 357 347 l 357 347 m 704 0 l 704 174 l 878 174 l 878 0 l 704 0 l 704 0 l 704 0 m 183 0 l 183 174 l 357 174 l 531 174 l 531 0 l 357 0 l 183 0 l 183 0 l 183 0 z "},"r":{"ha":868,"x_min":0,"x_max":693,"o":"m 10 0 l 10 174 l 10 347 l 10 521 l 10 694 l 10 868 l 10 1042 l 183 1042 l 357 1042 l 531 1042 l 531 868 l 357 868 l 183 868 l 183 694 l 183 521 l 357 521 l 531 521 l 531 347 l 531 174 l 357 174 l 357 347 l 183 347 l 183 174 l 183 0 l 10 0 l 10 0 l 10 0 m 531 521 l 531 694 l 531 868 l 704 868 l 704 694 l 704 521 l 531 521 l 531 521 l 531 521 m 531 0 l 531 174 l 704 174 l 704 0 l 531 0 l 531 0 l 531 0 z "},"s":{"ha":868,"x_min":0,"x_max":693,"o":"m 183 868 l 183 1042 l 357 1042 l 531 1042 l 704 1042 l 704 868 l 531 868 l 357 868 l 183 868 l 183 868 l 183 868 m 10 694 l 10 868 l 183 868 l 183 694 l 10 694 l 10 694 l 10 694 m 10 0 l 10 174 l 183 174 l 357 174 l 531 174 l 531 0 l 357 0 l 183 0 l 10 0 l 10 0 l 10 0 m 531 174 l 531 347 l 531 521 l 704 521 l 704 347 l 704 174 l 531 174 l 531 174 l 531 174 m 183 521 l 183 694 l 357 694 l 531 694 l 531 521 l 357 521 l 183 521 l 183 521 l 183 521 z "},"t":{"ha":1042,"x_min":0,"x_max":867,"o":"m 10 868 l 10 1042 l 183 1042 l 357 1042 l 531 1042 l 704 1042 l 878 1042 l 878 868 l 704 868 l 531 868 l 531 694 l 531 521 l 531 347 l 531 174 l 531 0 l 357 0 l 357 174 l 357 347 l 357 521 l 357 694 l 357 868 l 183 868 l 10 868 l 10 868 l 10 868 z "},"u":{"ha":868,"x_min":0,"x_max":693,"o":"m 10 174 l 10 347 l 10 521 l 10 694 l 10 868 l 10 1042 l 183 1042 l 183 868 l 183 694 l 183 521 l 183 347 l 183 174 l 10 174 l 10 174 l 10 174 m 183 0 l 183 174 l 357 174 l 531 174 l 531 347 l 531 521 l 531 694 l 531 868 l 531 1042 l 704 1042 l 704 868 l 704 694 l 704 521 l 704 347 l 704 174 l 704 0 l 531 0 l 357 0 l 183 0 l 183 0 l 183 0 z "},"v":{"ha":1042,"x_min":0,"x_max":867,"o":"m 10 347 l 10 521 l 10 694 l 10 868 l 10 1042 l 183 1042 l 183 868 l 183 694 l 183 521 l 183 347 l 10 347 l 10 347 l 10 347 m 183 174 l 183 347 l 357 347 l 357 174 l 183 174 l 183 174 l 183 174 m 357 0 l 357 174 l 531 174 l 531 0 l 357 0 l 357 0 l 357 0 m 531 174 l 531 347 l 704 347 l 704 174 l 531 174 l 531 174 l 531 174 m 704 347 l 704 521 l 704 694 l 704 868 l 704 1042 l 878 1042 l 878 868 l 878 694 l 878 521 l 878 347 l 704 347 l 704 347 l 704 347 z "},"w":{"ha":1042,"x_min":0,"x_max":867,"o":"m 183 0 l 183 174 l 183 347 l 357 347 l 357 174 l 357 0 l 183 0 l 183 0 l 183 0 m 10 347 l 10 521 l 10 694 l 10 868 l 10 1042 l 183 1042 l 183 868 l 183 694 l 183 521 l 183 347 l 10 347 l 10 347 l 10 347 m 531 0 l 531 174 l 531 347 l 704 347 l 704 174 l 704 0 l 531 0 l 531 0 l 531 0 m 357 347 l 357 521 l 357 694 l 531 694 l 531 521 l 531 347 l 357 347 l 357 347 l 357 347 m 704 347 l 704 521 l 704 694 l 704 868 l 704 1042 l 878 1042 l 878 868 l 878 694 l 878 521 l 878 347 l 704 347 l 704 347 l 704 347 z "},"x":{"ha":1042,"x_min":0,"x_max":867,"o":"m 10 0 l 10 174 l 183 174 l 183 0 l 10 0 l 10 0 l 10 0 m 704 0 l 704 174 l 878 174 l 878 0 l 704 0 l 704 0 l 704 0 m 183 174 l 183 347 l 357 347 l 357 174 l 183 174 l 183 174 l 183 174 m 531 174 l 531 347 l 704 347 l 704 174 l 531 174 l 531 174 l 531 174 m 357 347 l 357 521 l 357 694 l 531 694 l 531 521 l 531 347 l 357 347 l 357 347 l 357 347 m 10 868 l 10 1042 l 183 1042 l 183 868 l 10 868 l 10 868 l 10 868 m 183 694 l 183 868 l 357 868 l 357 694 l 183 694 l 183 694 l 183 694 m 531 694 l 531 868 l 704 868 l 704 694 l 531 694 l 531 694 l 531 694 m 704 868 l 704 1042 l 878 1042 l 878 868 l 704 868 l 704 868 l 704 868 z "},"y":{"ha":1042,"x_min":0,"x_max":867,"o":"m 357 0 l 357 174 l 357 347 l 357 521 l 531 521 l 531 347 l 531 174 l 531 0 l 357 0 l 357 0 l 357 0 m 10 694 l 10 868 l 10 1042 l 183 1042 l 183 868 l 183 694 l 10 694 l 10 694 l 10 694 m 704 694 l 704 868 l 704 1042 l 878 1042 l 878 868 l 878 694 l 704 694 l 704 694 l 704 694 m 183 521 l 183 694 l 357 694 l 357 521 l 183 521 l 183 521 l 183 521 m 531 521 l 531 694 l 704 694 l 704 521 l 531 521 l 531 521 l 531 521 z "},"z":{"ha":868,"x_min":0,"x_max":693,"o":"m 10 868 l 10 1042 l 183 1042 l 357 1042 l 531 1042 l 704 1042 l 704 868 l 704 694 l 531 694 l 531 868 l 357 868 l 183 868 l 10 868 l 10 868 l 10 868 m 10 0 l 10 174 l 10 347 l 183 347 l 183 174 l 357 174 l 531 174 l 704 174 l 704 0 l 531 0 l 357 0 l 183 0 l 10 0 l 10 0 l 10 0 m 183 347 l 183 521 l 357 521 l 357 347 l 183 347 l 183 347 l 183 347 m 357 521 l 357 694 l 531 694 l 531 521 l 357 521 l 357 521 l 357 521 z "},"{":{"ha":868,"x_min":0,"x_max":693,"o":"m 10 521 l 10 694 l 183 694 l 183 521 l 10 521 l 10 521 l 10 521 m 183 694 l 183 868 l 357 868 l 357 694 l 183 694 l 183 694 l 183 694 m 357 868 l 357 1042 l 531 1042 l 531 868 l 357 868 l 357 868 l 357 868 m 531 1042 l 531 1215 l 704 1215 l 704 1042 l 531 1042 l 531 1042 l 531 1042 m 183 347 l 183 521 l 357 521 l 357 347 l 183 347 l 183 347 l 183 347 m 357 174 l 357 347 l 531 347 l 531 174 l 357 174 l 357 174 l 357 174 m 531 0 l 531 174 l 704 174 l 704 0 l 531 0 l 531 0 l 531 0 z "},"|":{"ha":347,"x_min":0,"x_max":172,"o":"m 10 0 l 10 174 l 10 347 l 10 521 l 10 694 l 10 868 l 10 1042 l 10 1215 l 10 1389 l 183 1389 l 183 1215 l 183 1042 l 183 868 l 183 694 l 183 521 l 183 347 l 183 174 l 183 0 l 10 0 l 10 0 l 10 0 z "},"}":{"ha":868,"x_min":0,"x_max":693,"o":"m 183 174 l 183 347 l 357 347 l 357 174 l 183 174 l 183 174 l 183 174 m 357 347 l 357 521 l 531 521 l 531 347 l 357 347 l 357 347 l 357 347 m 10 1042 l 10 1215 l 183 1215 l 183 1042 l 10 1042 l 10 1042 l 10 1042 m 183 868 l 183 1042 l 357 1042 l 357 868 l 183 868 l 183 868 l 183 868 m 357 694 l 357 868 l 531 868 l 531 694 l 357 694 l 357 694 l 357 694 m 531 521 l 531 694 l 704 694 l 704 521 l 531 521 l 531 521 l 531 521 m 10 0 l 10 174 l 183 174 l 183 0 l 10 0 l 10 0 l 10 0 z "},"~":{"ha":1042,"x_min":0,"x_max":867,"o":"m 10 1042 l 10 1215 l 183 1215 l 183 1042 l 10 1042 l 10 1042 l 10 1042 m 183 1215 l 183 1389 l 357 1389 l 531 1389 l 531 1215 l 357 1215 l 183 1215 l 183 1215 l 183 1215 m 531 1042 l 531 1215 l 704 1215 l 704 1042 l 531 1042 l 531 1042 l 531 1042 m 704 1215 l 704 1389 l 878 1389 l 878 1215 l 704 1215 l 704 1215 l 704 1215 z "},"田":{"ha":1042,"x_min":22,"x_max":4,"o":"z "}}}
